<?xml version="1.0" ?><!DOCTYPE svg  PUBLIC '-//W3C//DTD SVG 1.1//EN'  'http://www.w3.org/Graphics/SVG/1.1/DTD/svg11.dtd'><svg fill-rule="evenodd" height="96pt" overflow="visible" stroke-linejoin="bevel" stroke-width="0.501" version="1.1" viewBox="0 0 96 96" width="96pt" xmlns="http://www.w3.org/2000/svg" xmlns:xlink="http://www.w3.org/1999/xlink"><defs><marker id="DefaultArrow2" markerHeight="1" markerUnits="strokeWidth" markerWidth="1" orient="auto" overflow="visible" viewBox="0 0 1 1"><g transform="scale(0.0092592592)"><path d="M -9 54 L -9 -54 L 117 0 z"/></g></marker><marker id="DefaultArrow3" markerHeight="1" markerUnits="strokeWidth" markerWidth="1" orient="auto" overflow="visible" viewBox="0 0 1 1"><g transform="scale(0.0092592592)"><path d="M -27 54 L -9 0 L -27 -54 L 135 0 z"/></g></marker><marker id="DefaultArrow4" markerHeight="1" markerUnits="strokeWidth" markerWidth="1" orient="auto" overflow="visible" viewBox="0 0 1 1"><g transform="scale(0.0092592592)"><path d="M -9,0 L -9,-45 C -9,-51.708 2.808,-56.580 9,-54 L 117,-9 C 120.916,-7.369 126.000,-4.242 126,0 C 126,4.242 120.916,7.369 117,9 L 9,54 C 2.808,56.580 -9,51.708 -9,45 z"/></g></marker><marker id="DefaultArrow5" markerHeight="1" markerUnits="strokeWidth" markerWidth="1" orient="auto" overflow="visible" viewBox="0 0 1 1"><g transform="scale(0.0092592592)"><path d="M -54, 0 C -54,29.807 -29.807,54 0,54 C 29.807,54 54,29.807 54,0 C 54,-29.807 29.807,-54 0,-54 C -29.807,-54 -54,-29.807 -54,0 z"/></g></marker><marker id="DefaultArrow6" markerHeight="1" markerUnits="strokeWidth" markerWidth="1" orient="auto" overflow="visible" viewBox="0 0 1 1"><g transform="scale(0.0092592592)"><path d="M -63,0 L 0,63 L 63,0 L 0,-63 z"/></g></marker><marker id="DefaultArrow7" markerHeight="1" markerUnits="strokeWidth" markerWidth="1" orient="auto" overflow="visible" viewBox="0 0 1 1"><g transform="scale(0.0092592592)"><path d="M 18,-54 L 108,-54 L 63,0 L 108,54 L 18, 54 L -36,0 z"/></g></marker><marker id="DefaultArrow8" markerHeight="1" markerUnits="strokeWidth" markerWidth="1" orient="auto" overflow="visible" viewBox="0 0 1 1"><g transform="scale(0.0092592592)"><path d="M -36,0 L 18,-54 L 54,-54 L 18,-18 L 27,-18 L 63,-54 L 99,-54 L 63,-18 L 72,-18 L 108,-54 L 144,-54 L 90,0 L 144,54 L 108,54 L 72,18 L 63,18 L 99,54 L 63,54 L 27,18 L 18,18 L 54,54 L 18,54 z"/></g></marker><marker id="DefaultArrow9" markerHeight="1" markerUnits="strokeWidth" markerWidth="1" orient="auto" overflow="visible" viewBox="0 0 1 1"><g transform="scale(0.0092592592)"><path d="M 0,45 L -45,0 L 0, -45 L 45, 0 z M 0, 63 L-63, 0 L 0, -63 L 63, 0 z"/></g></marker><filter id="StainedFilter"><feBlend in="SourceGraphic" in2="BackgroundImage" mode="multiply" result="blend"/><feComposite in="blend" in2="SourceAlpha" operator="in" result="comp"/></filter><filter id="BleachFilter"><feBlend in="SourceGraphic" in2="BackgroundImage" mode="screen" result="blend"/><feComposite in="blend" in2="SourceAlpha" operator="in" result="comp"/></filter><filter id="InvertTransparencyBitmapFilter"><feComponentTransfer><feFuncR amplitude="1.055" exponent=".416666666" offset="-0.055" type="gamma"/><feFuncG amplitude="1.055" exponent=".416666666" offset="-0.055" type="gamma"/><feFuncB amplitude="1.055" exponent=".416666666" offset="-0.055" type="gamma"/></feComponentTransfer><feComponentTransfer><feFuncR intercept="1" slope="-1" type="linear"/><feFuncG intercept="1" slope="-1" type="linear"/><feFuncB intercept="1" slope="-1" type="linear"/><feFuncA intercept="0" slope="1" type="linear"/></feComponentTransfer><feComponentTransfer><feFuncR amplitude="1" exponent="2.4" offset="0" type="gamma"/><feFuncG amplitude="1" exponent="2.4" offset="0" type="gamma"/><feFuncB amplitude="1" exponent="2.4" offset="0" type="gamma"/></feComponentTransfer></filter></defs><g fill="none" font-family="Times New Roman" font-size="16" id="Document" stroke="black" transform="scale(1 -1)"><g id="Spread" transform="translate(0 -96)"><g id="Layer 1"><path d="M 49.056,14.4 C 75.103,14.4 96.244,11.895 96.244,8.809 C 96.244,5.723 75.103,3.218 49.056,3.218 C 23.009,3.218 1.868,5.723 1.868,8.809 C 1.868,11.895 23.009,14.4 49.056,14.4 Z" fill="#000000" fill-opacity="0.298039" marker-end="none" marker-start="none" stroke="none" stroke-linecap="round" stroke-linejoin="round" stroke-miterlimit="79.8403193612775" stroke-opacity="0.298039" stroke-width="0.75"/><path d="M 40.738,65.278 C 42.038,64.93 43.281,64.637 44.638,64.628" fill="none" stroke="#4f5b69" stroke-linecap="round" stroke-linejoin="round" stroke-miterlimit="79.8403193612775" stroke-width="1.125"/><path d="M 39.913,67.453 C 41.414,67.326 43.06,67.345 44.563,67.453" fill="none" stroke="#4f5b69" stroke-linecap="round" stroke-linejoin="round" stroke-miterlimit="79.8403193612775" stroke-width="1.125"/><g id="Group" stroke-linejoin="round"><path d="M 69.389,5.403 C 63.986,6.036 60.833,6.999 58.698,7.906 L 57.952,8.261 L 56.371,7.703 C 54.746,7.228 53.092,6.943 51.461,6.791 L 50.721,6.773 L 52.667,7.074 C 44.808,5.426 27.709,5.969 10.873,6.611 C 9.451,6.665 7.372,6.714 5.822,7.145 C 4.276,7.575 2.086,8.898 3.302,11.615 L 4.171,12.573 L 4.395,15.402 C 4.541,16.649 4.708,18.074 4.783,19.722 C 5.117,27.043 4.841,33.269 4.459,37.081 L 4.22,38.859 L 2.364,46.222 C 1.274,52.345 0.927,58.651 0.743,64.588 C 0.54,71.131 1.367,77.651 3.672,84.087 C 4.007,85.023 4.627,87.06 5.444,88.731 C 6.107,90.086 7.524,92.57 9.934,92.228 C 12.296,91.891 13.212,90.566 14.215,88.199 L 14.768,86.818 L 16.767,87.545 C 19.22,88.115 21.795,88.137 24.138,87.765 L 26.342,87.208 L 26.885,87.902 C 28.318,89.698 30.636,92.232 33.092,91.934 C 33.339,91.904 33.574,91.813 33.777,91.67 C 37.391,89.117 35.004,81.424 35.388,80.156 L 35.684,79.349 L 36.18,79.53 C 39.426,79.799 42.27,77.375 42.536,74.131 C 42.669,72.508 42.133,70.983 41.159,69.829 L 40.357,69.185 L 41.275,67.039 C 42.078,65.047 42.869,63.051 43.577,61.453 L 44.784,59.065 L 44.957,59.059 L 46.265,58.332 L 51.33,58.462 C 53.478,58.714 55.699,59.309 58.03,60.685 C 60.397,62.08 62.841,64.062 63.785,67.311 C 64.747,70.619 66.079,77.274 67.407,80.908 C 70.31,88.844 73.714,88.254 75.578,85.606 C 77.255,83.224 74.804,78.204 75.399,69.697 C 75.53,67.817 75.341,64.321 74.778,61.37 C 73.641,55.417 75.173,51.805 75.839,46.625 C 77.361,34.786 76.102,28.881 74.254,24.111 C 73.159,21.287 71.994,18.995 70.736,17.109 L 69.563,15.588 L 69.844,15.444 C 70.919,15.181 72.286,15.072 73.993,15.141 C 75.284,15.193 81.712,15.954 86.889,15.73 C 89.443,15.62 92.099,15.269 93.804,14.251 C 96.034,12.92 96.395,10.637 94.75,8.162 C 91.964,3.971 71.427,5.164 69.389,5.403 Z M 14.161,15.756 L 17.307,16.252 C 18.106,16.351 18.817,16.429 19.41,16.491 L 15.646,19.895 L 15.268,18.42 L 14.161,15.756 Z" fill="#4c5d6e" marker-end="none" marker-start="none" stroke="none"/><g id="Group_1" stroke-linecap="round"><path d="M 5.534,40.325 C 6.094,37.425 6.731,29.481 6.282,19.654 C 6.019,13.869 4.302,10.92 7.476,9.149 C 9.591,7.968 21.381,28.731 10.383,31.957 C 8.912,32.389 6.071,41.801 5.534,40.325 Z" fill="#85919e" marker-end="none" marker-start="none" stroke="#4c5d6e" stroke-miterlimit="79.8403193612775" stroke-width="1.5"/><path d="M 52.36,8.543 C 44.731,6.943 27.877,7.464 10.931,8.11 C 7.929,8.224 3.468,8.314 4.671,11.002 C 5.769,13.45 17.948,14.829 20.822,15.127 C 24.59,15.517 61.666,22.066 52.36,8.543 Z" fill="#85919e" marker-end="none" marker-start="none" stroke="#4c5d6e" stroke-miterlimit="79.8403193612775" stroke-width="1.5"/><path d="M 45.068,56.803 C 43.124,56.803 39.986,66.864 37.549,71.945 C 36.318,74.514 35.125,76.053 33.959,79.703 C 33.343,81.63 35.667,88.499 32.912,90.445 C 30.699,90.714 28.424,87.312 26.927,85.522 C 23.187,86.864 17.951,87.013 13.912,84.925 C 12.117,89.4 11.818,90.445 9.723,90.743 C 7.343,91.081 5.833,85.671 5.085,83.582 C 2.852,77.347 2.045,71.018 2.243,64.635 C 2.612,52.739 3.643,39.768 9.723,29.725 C 16.208,19.015 26.749,10.708 39.045,8.988 C 43.184,8.41 49.817,7.352 55.951,9.143 C 63.62,11.38 68.689,13.901 72.856,24.653 C 74.598,29.151 75.848,34.798 74.352,46.434 C 73.731,51.26 72.108,55.386 73.305,61.652 C 73.847,64.494 74.024,67.86 73.903,69.593 C 73.305,78.143 75.506,83.104 74.352,84.743 C 72.557,87.293 70.462,84.893 68.816,80.393 C 67.491,76.768 66.273,70.493 65.226,66.893 C 64.122,63.096 61.279,60.859 58.793,59.393 C 53.707,56.393 49.025,56.803 45.068,56.803 Z" fill="#85919e" marker-end="none" marker-start="none" stroke="#4c5d6e" stroke-miterlimit="79.8403193612775" stroke-width="1.5"/><path d="M 41.037,57.556 C 40.314,57.448 39.534,57.361 39.179,57.407 C 38.385,57.508 37.701,57.538 36.921,57.444 C 33.989,57.093 18.155,58.158 18.846,63.603 C 19.333,67.434 32.077,70.375 35.58,69.163 C 40.369,67.508 40.484,59.243 42.935,57.743 C 42.736,57.682 41.692,57.655 41.037,57.556 Z" fill="#aab7c5" marker-end="none" marker-start="none" stroke="none" stroke-miterlimit="79.8403193612775" stroke-width="0.75"/><path d="M 22.622,11.993 C 23.512,12.24 24.454,12.623 25.423,12.981 C 26.281,12.378 27.165,11.87 28.238,11.953 C 29.042,12.731 27.654,13.059 27.449,13.63 C 28.916,14.012 30.765,13.531 32.386,13.91 C 35.353,14.682 38.336,15.321 40.842,14.993 C 44.185,14.555 52.716,12.791 52.698,9.478 C 51.568,9.151 47.899,8.393 43.468,8.243 L 31.485,8.093 C 29.17,7.952 20.332,9.055 22.622,11.993 Z" fill="#85919e" marker-end="none" marker-start="none" stroke="none" stroke-miterlimit="79.8403193612775" stroke-width="0.75"/><path d="M 38.86,57.328 C 41.702,56.728 43.572,56.953 44.702,56.824" fill="none" stroke="#4c5d6e" stroke-miterlimit="79.8403193612775" stroke-width="1.5"/><path d="M 50.565,11.693 C 56.784,12.673 55.502,8.543 69.564,6.893 C 72.817,6.512 91.425,5.869 93.501,8.993 C 98.588,16.643 77.094,13.764 74.053,13.643 C 66.572,13.343 64.029,16.493 65.226,21.743 C 62.569,17.499 52.244,17.12 49.667,13.043 C 49.798,13.066 50.431,11.672 50.565,11.693 Z" fill="#85919e" marker-end="none" marker-start="none" stroke="#4c5d6e" stroke-miterlimit="79.8403193612775" stroke-width="1.5"/><path d="M 50.116,10.493 C 49.948,10.919 49.868,11.622 50.116,11.993 C 51.916,14.689 59.958,12.264 63.58,15.743 C 64.235,16.372 63.437,19.73 64.628,21.143 C 65.445,22.113 66.773,21.1 67.62,21.143 C 70.468,25.415 66.461,28.368 61.935,28.043 C 55.644,27.591 48.285,21.976 46.526,15.743 C 45.574,12.372 45.425,9.53 49.518,9.743 C 49.751,9.751 49.503,10.574 50.116,10.493 Z" fill="#85919e" marker-end="none" marker-start="none" stroke="none" stroke-miterlimit="79.8403193612775" stroke-width="0.75"/><path d="M 19.934,76.417 C 23.052,76.417 25.583,73.879 25.583,70.753 C 25.583,67.627 23.052,65.089 19.934,65.089 C 16.816,65.089 14.285,67.627 14.285,70.753 C 14.285,73.879 16.816,76.417 19.934,76.417 Z" fill="#ffffff" marker-end="none" marker-start="none" stroke="#4f5b69" stroke-miterlimit="79.8403193612775" stroke-width="1.5"/><path d="M 36.304,78.036 C 38.72,78.236 40.843,76.431 41.042,74.009 C 41.241,71.585 39.441,69.456 37.025,69.257 C 35.162,71.603 33.892,74.806 34.129,77.244 C 34.749,77.685 35.49,77.969 36.304,78.036 Z" fill="#ffffff" marker-end="none" marker-start="none" stroke="#4f5b69" stroke-miterlimit="79.8403193612775" stroke-width="1.5"/><path d="M 33.549,66.328 C 33.903,65.439 34.1,64.425 34.147,63.478" fill="none" stroke="#4f5b69" stroke-miterlimit="79.8403193612775" stroke-width="1.5"/><path d="M 31.08,59.353 C 31.996,60.204 33.604,62.185 34.147,63.328 C 35.146,62.769 36.019,61.904 36.99,61.358" fill="none" stroke="#4f5b69" stroke-miterlimit="79.8403193612775" stroke-width="1.5"/><path d="M 34.45,65.15 C 32.878,64.688 28.398,66.081 28.424,67.489 C 28.459,69.373 35.016,70.54 37.214,69.694 C 38.422,68.009 35.905,65.818 34.593,65.202 C 34.547,65.182 34.5,65.166 34.45,65.15 Z" fill="#9a1545" marker-end="none" marker-start="none" stroke="none" stroke-miterlimit="79.8403193612775" stroke-width="0.75"/><path d="M 19.411,81.253 C 19.838,80.522 20.234,79.655 20.758,79.003" fill="none" stroke="#4f5b69" stroke-miterlimit="79.8403193612775" stroke-width="1.125"/><path d="M 21.207,81.778 C 21.417,80.789 22.132,79.591 22.403,78.778" fill="none" stroke="#4f5b69" stroke-miterlimit="79.8403193612775" stroke-width="1.125"/><path d="M 31.38,81.703 C 31.471,80.774 31.571,80.062 31.754,79.153" fill="none" stroke="#4f5b69" stroke-miterlimit="79.8403193612775" stroke-width="1.125"/><path d="M 17.186,73.453 C 18.434,73.453 19.449,72.435 19.449,71.184 C 19.449,69.933 18.434,68.915 17.186,68.915 C 15.938,68.915 14.923,69.933 14.923,71.184 C 14.923,72.435 15.938,73.453 17.186,73.453 Z" fill="#4f5b69" marker-end="none" marker-start="none" stroke="none" stroke-miterlimit="79.8403193612775" stroke-width="0.75"/><path d="M 36.297,76.078 C 37.277,76.078 38.074,75.278 38.074,74.296 C 38.074,73.314 37.277,72.514 36.297,72.514 C 35.317,72.514 34.52,73.314 34.52,74.296 C 34.52,75.278 35.317,76.078 36.297,76.078 Z" fill="#4f5b69" marker-end="none" marker-start="none" stroke="none" stroke-miterlimit="79.8403193612775" stroke-width="0.75"/><path d="M 21.431,60.853 C 23.438,62.212 25.656,63.575 27.789,64.678" fill="none" stroke="#4f5b69" stroke-miterlimit="79.8403193612775" stroke-width="1.125"/><path d="M 24.498,59.203 C 25.777,60.596 27.277,61.785 28.612,63.103" fill="none" stroke="#4f5b69" stroke-miterlimit="79.8403193612775" stroke-width="1.125"/><path d="M 6.639,79.661 C 6.53,81.861 7.944,87.126 10.322,86.993 C 13.074,83.089 10.185,80.001 6.679,79.28 C 6.66,79.393 6.647,79.521 6.639,79.661 Z" fill="#aab7c5" marker-end="none" marker-start="none" stroke="none" stroke-miterlimit="79.8403193612775" stroke-width="0.75"/><path d="M 33.072,82.398 C 30.001,82.994 32.067,87.591 33.211,88.793 C 33.896,87.306 34.046,83.861 33.51,82.343 C 33.353,82.353 33.208,82.372 33.072,82.398 Z" fill="#aab7c5" marker-end="none" marker-start="none" stroke="none" stroke-miterlimit="79.8403193612775" stroke-width="0.75"/><path d="M 73.067,74.533 C 70.362,76.026 71.866,79.523 73.629,81.318 C 73.93,79.758 73.554,76.091 73.268,74.431 C 73.198,74.464 73.131,74.498 73.067,74.533 Z" fill="#aab7c5" marker-end="none" marker-start="none" stroke="none" stroke-miterlimit="79.8403193612775" stroke-width="0.75"/><path d="M 8.077,9.041 C 9.387,12.267 14.176,11.405 15.059,9.018 C 14.155,8.622 9.454,8.947 8.077,9.041 Z" fill="#aab7c5" marker-end="none" marker-start="none" stroke="none" stroke-miterlimit="79.8403193612775" stroke-width="0.75"/><path d="M 14.211,39.143 C 15.488,42 18.747,45.345 22.14,46.643" fill="none" stroke="#4f5b69" stroke-miterlimit="79.8403193612775" stroke-width="4.5"/><path d="M 21.243,29.693 C 22.486,37.636 27.537,42.391 30.967,45.143" fill="none" stroke="#4f5b69" stroke-miterlimit="79.8403193612775" stroke-width="5.25"/><path d="M 29.125,22.949 C 30.944,31.49 35.612,37.421 40.588,43.649" fill="none" stroke="#4f5b69" stroke-miterlimit="79.8403193612775" stroke-width="6"/><path d="M 67.171,16.043 C 76.147,29.607 74.217,41.92 72.856,47.693 C 73.124,39.046 68.577,35.794 66.572,28.793 C 65.67,25.643 64.973,19.259 66.722,16.343 C 66.805,16.398 67.091,15.985 67.171,16.043 Z" fill="#aab7c5" marker-end="none" marker-start="none" stroke="none" stroke-miterlimit="79.8403193612775" stroke-width="0.75"/></g></g><path d="M 33.319,68.735 C 34.339,68.898 35.217,68.714 35.279,68.325 C 35.341,67.937 34.563,67.489 33.543,67.327 C 32.523,67.164 31.645,67.348 31.583,67.737 C 31.521,68.125 32.299,68.573 33.319,68.735 Z" fill="#ff4e8e" marker-end="none" marker-start="none" stroke="none" stroke-linecap="round" stroke-linejoin="round" stroke-miterlimit="79.8403193612775" stroke-width="0.75"/></g></g></g></svg>